HIERARCHY
ROOT Root
{
  OFFSET 0.0 0.0 0.0
  CHANNELS 6 Xposition Yposition Zposition Zrotation Yrotation Xrotation
  JOINT Hips
  {
    OFFSET 0.0 100.0 0.0
    CHANNELS 6 Xposition Yposition Zposition Zrotation Yrotation Xrotation
    JOINT Spine1
    {
      OFFSET -0.013727 5.003763 -0.053727
      CHANNELS 3 Zrotation Yrotation Xrotation
      JOINT Spine2
      {
        OFFSET -0.0 7.125301 -0.029825
        CHANNELS 3 Zrotation Yrotation Xrotation
        JOINT Chest
        {
          OFFSET -1e-06 7.550063 -0.815971
          CHANNELS 3 Zrotation Yrotation Xrotation
          JOINT Neck1
          {
            OFFSET -0.181677 26.311295 -0.553348
            CHANNELS 3 Zrotation Yrotation Xrotation
            JOINT Neck2
            {
              OFFSET -3e-06 7.709397 2.302585
              CHANNELS 3 Zrotation Yrotation Xrotation
              JOINT Head
              {
                OFFSET -5e-06 6.128916 1.953709
                CHANNELS 3 Zrotation Yrotation Xrotation
                JOINT HeadEnd
                {
                  OFFSET 0.003598 16.065403 -1.835379
                  CHANNELS 3 Zrotation Yrotation Xrotation
                }
                JOINT Jaw
                {
                  OFFSET 0.002637 0.475592 3.094941
                  CHANNELS 3 Zrotation Yrotation Xrotation
                }
                JOINT LeftEye
                {
                  OFFSET 3.206381 5.380205 7.586883
                  CHANNELS 3 Zrotation Yrotation Xrotation
                }
                JOINT RightEye
                {
                  OFFSET -3.22244 5.361869 7.558234
                  CHANNELS 3 Zrotation Yrotation Xrotation
                }
              }
            }
          }
          JOINT LeftShoulder
          {
            OFFSET 1.621652 23.237164 5.113413
            CHANNELS 3 Zrotation Yrotation Xrotation
            JOINT LeftArm
            {
              OFFSET 14.919846 2e-06 -5.502326
              CHANNELS 3 Zrotation Yrotation Xrotation
              JOINT LeftForeArm
              {
                OFFSET 28.739307 0.0 -0.002588
                CHANNELS 3 Zrotation Yrotation Xrotation
                JOINT LeftHand
                {
                  OFFSET 27.093981 -1e-06 0.002609
                  CHANNELS 3 Zrotation Yrotation Xrotation
                  JOINT LeftHandThumb1
                  {
                    OFFSET 2.276482 -1.392045 3.191413
                    CHANNELS 3 Zrotation Yrotation Xrotation
                    JOINT LeftHandThumb2
                    {
                      OFFSET 4.012836 -1.828127 1.641654
                      CHANNELS 3 Zrotation Yrotation Xrotation
                      JOINT LeftHandThumb3
                      {
                        OFFSET 2.798515 0.0 -3e-06
                        CHANNELS 3 Zrotation Yrotation Xrotation
                        JOINT LeftHandThumbEnd
                        {
                          OFFSET 3.180793 -4e-06 4e-06
                          CHANNELS 3 Zrotation Yrotation Xrotation
                        }
                      }
                    }
                  }
                  JOINT LeftHandIndex1
                  {
                    OFFSET 3.247555 -0.531998 2.296169
                    CHANNELS 3 Zrotation Yrotation Xrotation
                    JOINT LeftHandIndex2
                    {
                      OFFSET 6.364578 0.01206 0.1786
                      CHANNELS 3 Zrotation Yrotation Xrotation
                      JOINT LeftHandIndex3
                      {
                        OFFSET 3.662364 0.0 0.0
                        CHANNELS 3 Zrotation Yrotation Xrotation
                        JOINT LeftHandIndex4
                        {
                          OFFSET 2.329242 4e-06 4e-06
                          CHANNELS 3 Zrotation Yrotation Xrotation
                          JOINT LeftHandIndexEnd
                          {
                            OFFSET 2.759615 -0.180537 -0.113024
                            CHANNELS 3 Zrotation Yrotation Xrotation
                          }
                        }
                      }
                    }
                  }
                  JOINT LeftHandMiddle1
                  {
                    OFFSET 3.163495 0.240981 1.000332
                    CHANNELS 3 Zrotation Yrotation Xrotation
                    JOINT LeftHandMiddle2
                    {
                      OFFSET 6.19078 -0.259278 -1.002548
                      CHANNELS 3 Zrotation Yrotation Xrotation
                      JOINT LeftHandMiddle3
                      {
                        OFFSET 4.35652 -4e-06 -1e-06
                        CHANNELS 3 Zrotation Yrotation Xrotation
                        JOINT LeftHandMiddle4
                        {
                          OFFSET 2.996877 -8e-06 0.0
                          CHANNELS 3 Zrotation Yrotation Xrotation
                          JOINT LeftHandMiddleEnd
                          {
                            OFFSET 2.304287 -0.294569 -0.031741
                            CHANNELS 3 Zrotation Yrotation Xrotation
                          }
                        }
                      }
                    }
                  }
                  JOINT LeftHandRing1
                  {
                    OFFSET 2.882643 -0.053652 -0.322543
                    CHANNELS 3 Zrotation Yrotation Xrotation
                    JOINT LeftHandRing2
                    {
                      OFFSET 5.854541 -0.486202 -1.373841
                      CHANNELS 3 Zrotation Yrotation Xrotation
                      JOINT LeftHandRing3
                      {
                        OFFSET 4.350578 0.0 3e-06
                        CHANNELS 3 Zrotation Yrotation Xrotation
                        JOINT LeftHandRing4
                        {
                          OFFSET 2.651321 7e-06 2e-06
                          CHANNELS 3 Zrotation Yrotation Xrotation
                          JOINT LeftHandRingEnd
                          {
                            OFFSET 1.936105 0.077687 -7.1e-05
                            CHANNELS 3 Zrotation Yrotation Xrotation
                          }
                        }
                      }
                    }
                  }
                  JOINT LeftHandPinky1
                  {
                    OFFSET 2.8655 -0.310005 -1.600378
                    CHANNELS 3 Zrotation Yrotation Xrotation
                    JOINT LeftHandPinky2
                    {
                      OFFSET 5.087849 -1.331141 -1.77123
                      CHANNELS 3 Zrotation Yrotation Xrotation
                      JOINT LeftHandPinky3
                      {
                        OFFSET 3.070974 4e-06 0.0
                        CHANNELS 3 Zrotation Yrotation Xrotation
                        JOINT LeftHandPinky4
                        {
                          OFFSET 1.549672 0.0 1e-06
                          CHANNELS 3 Zrotation Yrotation Xrotation
                          JOINT LeftHandPinkyEnd
                          {
                            OFFSET 1.944893 -0.157802 0.057219
                            CHANNELS 3 Zrotation Yrotation Xrotation
                          }
                        }
                      }
                    }
                  }
                }
              }
            }
          }
          JOINT RightShoulder
          {
            OFFSET -1.380118 23.180309 5.214158
            CHANNELS 3 Zrotation Yrotation Xrotation
            JOINT RightArm
            {
              OFFSET -15.037196 1.2e-05 -5.545604
              CHANNELS 3 Zrotation Yrotation Xrotation
              JOINT RightForeArm
              {
                OFFSET -28.736639 2e-06 -0.002597
                CHANNELS 3 Zrotation Yrotation Xrotation
                JOINT RightHand
                {
                  OFFSET -27.133619 -0.0 0.002613
                  CHANNELS 3 Zrotation Yrotation Xrotation
                  JOINT RightHandThumb1
                  {
                    OFFSET -2.274032 -1.383988 3.163127
                    CHANNELS 3 Zrotation Yrotation Xrotation
                    JOINT RightHandThumb2
                    {
                      OFFSET -4.011429 -1.827466 1.640914
                      CHANNELS 3 Zrotation Yrotation Xrotation
                      JOINT RightHandThumb3
                      {
                        OFFSET -2.794935 -4e-06 -3e-06
                        CHANNELS 3 Zrotation Yrotation Xrotation
                        JOINT RightHandThumbEnd
                        {
                          OFFSET -3.183852 4e-06 1e-06
                          CHANNELS 3 Zrotation Yrotation Xrotation
                        }
                      }
                    }
                  }
                  JOINT RightHandIndex1
                  {
                    OFFSET -3.253266 -0.520057 2.282866
                    CHANNELS 3 Zrotation Yrotation Xrotation
                    JOINT RightHandIndex2
                    {
                      OFFSET -6.341917 0.012471 0.178266
                      CHANNELS 3 Zrotation Yrotation Xrotation
                      JOINT RightHandIndex3
                      {
                        OFFSET -3.654871 -8e-06 -0.0
                        CHANNELS 3 Zrotation Yrotation Xrotation
                        JOINT RightHandIndex4
                        {
                          OFFSET -2.327586 0.0 1e-06
                          CHANNELS 3 Zrotation Yrotation Xrotation
                          JOINT RightHandIndexEnd
                          {
                            OFFSET -2.76179 -0.180656 -0.113078
                            CHANNELS 3 Zrotation Yrotation Xrotation
                          }
                        }
                      }
                    }
                  }
                  JOINT RightHandMiddle1
                  {
                    OFFSET -3.168106 0.246593 1.00103
                    CHANNELS 3 Zrotation Yrotation Xrotation
                    JOINT RightHandMiddle2
                    {
                      OFFSET -6.180828 -0.258836 -1.000895
                      CHANNELS 3 Zrotation Yrotation Xrotation
                      JOINT RightHandMiddle3
                      {
                        OFFSET -4.348901 0.0 -0.0
                        CHANNELS 3 Zrotation Yrotation Xrotation
                        JOINT RightHandMiddle4
                        {
                          OFFSET -3.00024 -4e-06 -2e-06
                          CHANNELS 3 Zrotation Yrotation Xrotation
                          JOINT RightHandMiddleEnd
                          {
                            OFFSET -2.30252 -0.29437 -0.031706
                            CHANNELS 3 Zrotation Yrotation Xrotation
                          }
                        }
                      }
                    }
                  }
                  JOINT RightHandRing1
                  {
                    OFFSET -2.88569 -0.067952 -0.308858
                    CHANNELS 3 Zrotation Yrotation Xrotation
                    JOINT RightHandRing2
                    {
                      OFFSET -5.854198 -0.48613 -1.373731
                      CHANNELS 3 Zrotation Yrotation Xrotation
                      JOINT RightHandRing3
                      {
                        OFFSET -4.33881 -4e-06 -0.0
                        CHANNELS 3 Zrotation Yrotation Xrotation
                        JOINT RightHandRing4
                        {
                          OFFSET -2.654903 -4e-06 4e-06
                          CHANNELS 3 Zrotation Yrotation Xrotation
                          JOINT RightHandRingEnd
                          {
                            OFFSET -1.933568 0.077527 -5.2e-05
                            CHANNELS 3 Zrotation Yrotation Xrotation
                          }
                        }
                      }
                    }
                  }
                  JOINT RightHandPinky1
                  {
                    OFFSET -2.866425 -0.342796 -1.584145
                    CHANNELS 3 Zrotation Yrotation Xrotation
                    JOINT RightHandPinky2
                    {
                      OFFSET -5.091371 -1.332055 -1.772385
                      CHANNELS 3 Zrotation Yrotation Xrotation
                      JOINT RightHandPinky3
                      {
                        OFFSET -3.062664 -4e-06 1e-06
                        CHANNELS 3 Zrotation Yrotation Xrotation
                        JOINT RightHandPinky4
                        {
                          OFFSET -1.546529 4e-06 -2e-06
                          CHANNELS 3 Zrotation Yrotation Xrotation
                          JOINT RightHandPinkyEnd
                          {
                            OFFSET -1.945119 -0.157718 0.057211
                            CHANNELS 3 Zrotation Yrotation Xrotation
                          }
                        }
                      }
                    }
                  }
                }
              }
            }
          }
        }
      }
    }
    JOINT LeftLeg
    {
      OFFSET 10.043214 -8.434526 2.595655
      CHANNELS 3 Zrotation Yrotation Xrotation
      JOINT LeftShin
      {
        OFFSET -1e-06 -43.221752 -0.802913
        CHANNELS 3 Zrotation Yrotation Xrotation
        JOINT LeftFoot
        {
          OFFSET 1e-06 -42.155094 -3.481523
          CHANNELS 3 Zrotation Yrotation Xrotation
          JOINT LeftToeBase
          {
            OFFSET 0.0 -5.059472 13.231529
            CHANNELS 3 Zrotation Yrotation Xrotation
            JOINT LeftToeEnd
            {
              OFFSET -0.009607 -1.647619 6.513017
              CHANNELS 3 Zrotation Yrotation Xrotation
            }
          }
        }
      }
    }
    JOINT RightLeg
    {
      OFFSET -10.047278 -8.29526 2.620317
      CHANNELS 3 Zrotation Yrotation Xrotation
      JOINT RightShin
      {
        OFFSET 1e-06 -43.362206 -0.805556
        CHANNELS 3 Zrotation Yrotation Xrotation
        JOINT RightFoot
        {
          OFFSET 2e-06 -42.117393 -3.478398
          CHANNELS 3 Zrotation Yrotation Xrotation
          JOINT RightToeBase
          {
            OFFSET -0.0 -5.079609 13.284196
            CHANNELS 3 Zrotation Yrotation Xrotation
            JOINT RightToeEnd
            {
              OFFSET 0.009532 -1.634378 6.460591
              CHANNELS 3 Zrotation Yrotation Xrotation
            }
          }
        }
      }
    }
  }
}
MOTION
Frames: 5
Frame Time: 0.03333333333333333
0.0 0.0 0.0 0.0 -0.0 0.0 -0.619082 97.200768 -3.951802 6.823024 0.570842 -4.735805 -2.98796 0.191279 1.030589 -0.868457 2.134718 -4.295804 -1.971217 -0.195883 10.863649 -6.290418 5.335085 5.285301 -0.689626 0.277835 -3.686305 1.688745 0.309211 -12.589182 7.7e-05 -2.3e-05 6e-06 0.061571 0.062779 0.074131 0.719163 -3.707733 -10.619627 -0.608735 3.843334 -10.648603 -24.975838 -0.919682 14.199314 -55.580124 0.940204 8.843835 0.100246 -19.930809 0.181957 9.59418 3.833115 5.513096 -5.882107 9.86129 0.702592 -10.936873 -0.360574 7.156207 -0.0 8.774829 0.0 -17.033306 18.3934 5.536483 -1.844032 2.498505 -2.507279 -10.1636 4.678947 4.621111 -20.976025 -1e-06 3e-06 -21.226292 2.451699 -3.594002 -2e-06 -6e-06 1e-06 -1.362682 2.240799 -0.746323 -21.334917 0.584912 3.008327 -13.821216 -1e-06 3e-06 -23.887175 -0.249076 -0.839483 -60.156837 2.200607 -1.353857 -0.294025 1.679688 0.833257 -14.218211 0.093216 1.300582 -34.212051 -0.287561 0.967169 -20.033215 0.96454 1.212842 -0.0 0.0 0.0 -3.440389 0.788234 0.501657 -15.928189 -3.16731 2.999708 -6.338828 -1e-06 2e-06 -18.123447 3.648186 -4.905671 -3e-06 0.0 -2e-06 11.141538 11.841313 14.265148 66.657387 13.483944 15.231805 -0.402663 27.289833 -0.209792 -7.602316 1.323252 1.928909 2.243542 -5.255038 -3.180159 14.282896 -0.826596 6.952505 0.0 -12.69061 -1e-06 16.337469 -17.686474 2.520463 1.665667 -1.955922 -2.8783 4.727801 -4.170591 4.993924 11.020531 1e-06 1e-06 12.109057 -3.73572 -2.866785 0.0 -0.0 1e-06 1.291986 -1.928551 -1.49809 14.800134 0.567467 3.865609 14.24258 -1.341739 -6.660661 19.631977 0.143923 -0.648246 49.788155 -0.613878 -6.107307 0.353029 -1.511151 -0.031939 20.222799 3.684309 2.316629 18.787279 3e-06 -4e-06 10.751631 -0.479869 1.397906 1e-06 2e-06 -0.0 3.273808 0.305946 -0.580112 21.48682 11.830379 2.266135 8.16293 1e-06 -2e-06 18.399092 -3.79899 -4.940579 5e-06 -0.0 -0.0 -13.127165 6.789982 -12.718875 0.10961 0.409482 16.41474 1.375053 2.967001 0.022983 1.578731 -2.046849 -1.597809 0.0 0.0 2e-06 -8.598025 3.429864 -2.747632 0.20218 0.565867 64.368027 10.073705 3.902399 29.699575 -1.122543 0.877209 -4.472325 -0.0 -0.0 -0.0 
0.0 0.0 0.0 0.0 -0.0 0.0 -0.417582 98.074684 -1.944537 6.7083 0.960529 -5.452854 -3.073765 0.144835 1.576646 -0.87021 1.4882 -4.136097 -1.824724 -0.746475 11.130282 -6.029039 5.320889 5.294034 -0.632955 0.29428 -3.628872 1.583251 0.589812 -12.807237 7.7e-05 -2.2e-05 6e-06 0.050842 0.009037 0.061283 0.710164 -3.758692 -10.630013 -0.620041 3.786681 -10.650537 -24.853525 -1.256667 13.997838 -54.527016 -1.406145 9.627481 -0.418532 -21.907337 0.215531 9.750931 3.519513 5.377357 -5.882108 9.861284 0.70259 -10.936875 -0.360576 7.156207 2e-06 8.774826 -2e-06 -16.839746 18.377115 5.520017 -1.844033 2.498504 -2.507276 -10.163601 4.678944 4.621108 -20.976028 -6e-06 2e-06 -21.226292 2.451696 -3.594 -2e-06 -6e-06 -1e-06 -1.362682 2.240798 -0.746323 -21.334921 0.584907 3.008323 -13.821218 -4e-06 2e-06 -23.887178 -0.249081 -0.839482 -60.256306 2.283064 -1.48371 -0.294025 1.679687 0.833255 -14.218214 0.093213 1.30058 -34.212063 -0.287568 0.967172 -20.033218 0.964535 1.212846 0.0 -0.0 -0.0 -3.440389 0.788233 0.501657 -15.928189 -3.167311 2.999707 -6.338828 -2e-06 2e-06 -18.123451 3.648181 -4.905672 -4e-06 1e-06 -2e-06 11.816333 11.416004 14.565855 66.822578 12.343918 16.503107 -0.287409 23.573477 -0.07086 -7.195587 0.250856 1.346351 2.243543 -5.255038 -3.180159 14.2829 -0.826595 6.952507 -4e-06 -12.69061 1e-06 16.698694 -17.625769 2.202379 1.665668 -1.955922 -2.878301 4.727802 -4.17059 4.993927 11.020535 4e-06 -1e-06 12.109061 -3.735716 -2.866786 0.0 0.0 -1e-06 1.291986 -1.928549 -1.49809 14.800139 0.567469 3.865608 14.242584 -1.341735 -6.660666 19.631981 0.143929 -0.648246 49.925865 -0.454186 -6.0976 0.353029 -1.511151 -0.031943 20.222803 3.684313 2.316628 18.787287 6e-06 -0.0 10.751637 -0.479867 1.397906 1e-06 1e-06 0.0 3.273809 0.305947 -0.580111 21.486828 11.830383 2.266131 8.162933 3e-06 -2e-06 18.399096 -3.798984 -4.940579 4e-06 1e-06 -1e-06 -12.854264 6.800984 -7.287764 0.012826 0.300603 9.971403 2.166919 2.994848 1.825832 1.569877 -2.101671 -0.95213 -0.0 0.0 2e-06 -8.600045 2.23845 -8.338602 0.179456 0.255957 69.817734 4.564621 1.458962 21.281212 -1.295378 0.906261 -3.398157 0.0 -0.0 -1e-06 
0.0 0.0 0.0 0.0 -0.0 0.0 0.022493 98.813599 2.22444 5.663753 1.662428 -6.076375 -2.737684 -0.00369 2.069403 -0.74755 0.782756 -3.956315 -1.249101 -1.483252 11.272404 -5.648303 5.267083 5.550776 -0.550212 0.435076 -3.633333 1.383532 0.812493 -12.742556 7.7e-05 -2.2e-05 6e-06 0.043164 -0.009041 0.049526 0.717157 -3.767789 -10.637616 -0.640554 3.759114 -10.654663 -24.005619 -1.943013 14.044446 -54.106075 -4.025511 10.778623 -0.623836 -23.967644 0.199791 9.966277 3.703443 6.279291 -5.88211 9.861292 0.702592 -10.93688 -0.360574 7.156208 0.0 8.774831 -2e-06 -16.698105 18.38245 5.566568 -1.844033 2.498506 -2.507276 -10.163608 4.678949 4.621109 -20.97604 -3e-06 2e-06 -21.226303 2.4517 -3.594002 -0.0 -5e-06 -1e-06 -1.362682 2.2408 -0.746324 -21.33493 0.584911 3.008324 -13.821224 -2e-06 3e-06 -23.887186 -0.24908 -0.839485 -60.306488 2.412755 -1.510553 -0.294025 1.679689 0.833257 -14.218221 0.093216 1.30058 -34.212078 -0.287564 0.967169 -20.03323 0.964537 1.212844 0.0 0.0 1e-06 -3.440392 0.788234 0.501657 -15.9282 -3.16731 2.999706 -6.338831 -0.0 1e-06 -18.123461 3.648185 -4.905674 -4e-06 -0.0 -2e-06 11.882563 10.934003 14.69296 67.275513 10.284416 16.337582 -0.198321 21.518366 0.007723 -6.772465 -0.672288 0.087208 2.243543 -5.25504 -3.180158 14.282899 -0.826596 6.952506 -2e-06 -12.690614 -2e-06 16.838657 -17.546053 2.006846 1.665668 -1.955923 -2.878298 4.727802 -4.170591 4.993927 11.020534 2e-06 -0.0 12.109059 -3.735719 -2.866786 -0.0 0.0 0.0 1.291986 -1.92855 -1.498089 14.800136 0.567468 3.865611 14.242579 -1.341738 -6.660661 19.631975 0.143926 -0.648245 49.854099 -0.234519 -6.116691 0.353029 -1.511151 -0.03194 20.222803 3.68431 2.316631 18.787287 4e-06 0.0 10.751635 -0.479869 1.397906 0.0 0.0 -0.0 3.273809 0.305946 -0.58011 21.486824 11.830382 2.266134 8.162934 3e-06 -1e-06 18.399096 -3.798989 -4.940579 5e-06 -0.0 -3e-06 -11.542917 6.267118 -1.560882 -0.056326 0.173024 5.851322 2.567734 2.86371 1.131621 1.57526 -2.117958 -0.671619 0.0 -0.0 2e-06 -7.309168 1.379774 -13.230133 0.155301 0.051893 70.982338 0.285228 -1.395911 15.150236 -1.435163 0.938269 -3.443985 0.0 -0.0 -1e-06 
0.0 0.0 0.0 0.0 -0.0 0.0 0.338151 99.291702 6.492616 4.151013 2.680994 -6.459313 -2.291493 -0.166496 2.451313 -0.607156 0.064899 -3.827343 -0.419983 -2.332386 11.293426 -4.981772 5.054296 5.96541 -0.440129 0.72556 -3.640717 1.192535 1.004629 -12.590499 7.7e-05 -2.3e-05 6e-06 0.037885 -0.010552 0.037059 0.726763 -3.761349 -10.652428 -0.658686 3.748069 -10.664164 -22.328325 -2.842942 14.238678 -54.260513 -6.868564 11.969411 -0.590366 -26.39282 0.129984 9.743114 4.114333 7.578863 -5.882104 9.861283 0.702588 -10.936869 -0.360575 7.156206 1e-06 8.774822 -2e-06 -16.498306 18.346285 5.691022 -1.844033 2.498504 -2.507278 -10.163597 4.678943 4.62111 -20.976021 -4e-06 2e-06 -21.22628 2.451695 -3.594 1e-06 -6e-06 0.0 -1.362681 2.240798 -0.746322 -21.334911 0.584909 3.008324 -13.821211 -3e-06 1e-06 -23.887165 -0.249078 -0.839482 -60.295273 2.510328 -1.45136 -0.294024 1.679687 0.833254 -14.218207 0.093215 1.300581 -34.212044 -0.287563 0.967171 -20.033211 0.964536 1.212844 1e-06 1e-06 0.0 -3.440388 0.788233 0.501654 -15.928185 -3.167308 2.999707 -6.338825 -1e-06 -0.0 -18.123444 3.648182 -4.905671 -4e-06 -0.0 -1e-06 11.927274 10.242769 14.735093 67.44397 7.577161 15.168012 -0.002117 20.877777 0.097833 -5.932703 -1.1927 -1.256004 2.24354 -5.255034 -3.180158 14.282886 -0.826594 6.952504 -3e-06 -12.6906 2e-06 16.81209 -17.5375 1.986205 1.665665 -1.95592 -2.8783 4.727796 -4.170584 4.993924 11.02052 3e-06 -0.0 12.109045 -3.735712 -2.866784 -1e-06 -0.0 -0.0 1.291984 -1.928548 -1.498087 14.800122 0.567469 3.865609 14.242566 -1.341733 -6.660657 19.63196 0.143927 -0.648244 49.821991 -0.103311 -6.14201 0.353029 -1.51115 -0.031939 20.222784 3.684309 2.316631 18.78727 5e-06 3e-06 10.751625 -0.47987 1.397907 -1e-06 1e-06 1e-06 3.273805 0.305947 -0.580111 21.486803 11.830368 2.266132 8.162925 1e-06 -0.0 18.399076 -3.798984 -4.940573 4e-06 1e-06 -1e-06 -9.786079 5.390491 3.008552 -0.080527 0.095944 3.429237 2.764149 2.538784 -0.217582 1.582016 -2.061945 -0.505236 0.0 0.0 2e-06 -5.500856 0.932239 -17.425684 0.100831 -0.12346 68.299622 -2.74081 -4.14379 10.636051 -1.534178 0.970377 -3.768206 0.0 -0.0 -1e-06 
0.0 0.0 0.0 0.0 -0.0 0.0 0.542783 99.408134 10.803497 2.871664 3.894413 -6.582636 -2.056108 -0.288351 2.654257 -0.547716 -0.578411 -3.750278 0.32506 -3.09579 11.37035 -3.986171 4.63521 6.379843 -0.364381 1.08312 -3.68047 1.155813 1.050717 -12.616488 7.7e-05 -2.2e-05 6e-06 0.037235 0.006559 0.021894 0.726771 -3.738333 -10.66406 -0.658388 3.757499 -10.66308 -20.388889 -3.892534 14.250353 -54.185619 -9.527781 13.098844 -0.427011 -29.580256 0.064107 9.011777 4.177676 7.902337 -5.88211 9.861292 0.702591 -10.936879 -0.360577 7.15621 1e-06 8.77483 -4e-06 -16.174686 18.29175 5.903052 -1.844034 2.498506 -2.507279 -10.163606 4.678947 4.62111 -20.97604 -6e-06 4e-06 -21.226301 2.451696 -3.594001 1e-06 -7e-06 -1e-06 -1.362683 2.240799 -0.746322 -21.33493 0.584907 3.008324 -13.821225 -5e-06 1e-06 -23.887192 -0.249083 -0.839481 -60.301617 2.561105 -1.277228 -0.294026 1.679688 0.833256 -14.218221 0.093214 1.30058 -34.212074 -0.287568 0.967173 -20.03323 0.964534 1.212845 -0.0 2e-06 2e-06 -3.440391 0.788233 0.501655 -15.928201 -3.167314 2.999709 -6.338831 -2e-06 1e-06 -18.123459 3.648181 -4.905673 -4e-06 0.0 -1e-06 12.481855 9.318155 14.828783 66.990021 4.691929 13.56984 0.23125 21.01235 0.188755 -4.959769 -1.251264 -2.505027 2.243543 -5.25504 -3.18016 14.282904 -0.826595 6.95251 -4e-06 -12.690612 1e-06 16.681534 -17.577763 2.082545 1.665668 -1.955922 -2.878301 4.727803 -4.17059 4.993928 11.020536 4e-06 -2e-06 12.10906 -3.735717 -2.866786 1e-06 -0.0 -1e-06 1.291987 -1.92855 -1.498092 14.800142 0.567469 3.865611 14.242584 -1.341736 -6.660663 19.631987 0.143926 -0.648245 49.795181 -0.121347 -6.220438 0.353029 -1.511152 -0.03194 20.222811 3.684313 2.316633 18.787289 5e-06 0.0 10.751638 -0.479867 1.397907 -2e-06 -1e-06 1e-06 3.273809 0.305948 -0.580112 21.486834 11.830384 2.266137 8.162934 1e-06 0.0 18.399099 -3.798986 -4.940579 2e-06 1e-06 -2e-06 -8.366462 4.315618 6.620036 -0.068621 0.065615 2.186183 2.941142 2.157475 -2.293352 1.594244 -1.979306 -0.305048 -0.0 -0.0 2e-06 -4.061221 0.605323 -20.890162 -0.010252 -0.242774 62.413574 -4.2133 -6.90165 6.996315 -1.556911 1.000796 -4.116377 0.0 -0.0 -4e-06 
